<svg xmlns="http://www.w3.org/2000/svg"><svg viewBox="0 0 41 41"><rect width="100%" height="100%"/><path id="a" fill="#fff" d="M0 0h1v1H0z"/><use href="#a"/><use x="1" href="#a"/><use x="2" href="#a"/><use x="3" href="#a"/><use x="4" href="#a"/><use x="5" href="#a"/><use x="6" href="#a"/><use x="9" href="#a"/><use x="12" href="#a"/><use x="13" href="#a"/><use x="14" href="#a"/><use x="15" href="#a"/><use x="17" href="#a"/><use x="20" href="#a"/><use x="21" href="#a"/><use x="24" href="#a"/><use x="25" href="#a"/><use x="27" href="#a"/><use x="31" href="#a"/><use x="34" href="#a"/><use x="35" href="#a"/><use x="36" href="#a"/><use x="37" href="#a"/><use x="38" href="#a"/><use x="39" href="#a"/><use x="40" href="#a"/><use y="1" href="#a"/><use x="6" y="1" href="#a"/><use x="8" y="1" href="#a"/><use x="9" y="1" href="#a"/><use x="11" y="1" href="#a"/><use x="14" y="1" href="#a"/><use x="15" y="1" href="#a"/><use x="18" y="1" href="#a"/><use x="21" y="1" href="#a"/><use x="22" y="1" href="#a"/><use x="24" y="1" href="#a"/><use x="25" y="1" href="#a"/><use x="28" y="1" href="#a"/><use x="30" y="1" href="#a"/><use x="32" y="1" href="#a"/><use x="34" y="1" href="#a"/><use x="40" y="1" href="#a"/><use y="2" href="#a"/><use x="2" y="2" href="#a"/><use x="3" y="2" href="#a"/><use x="4" y="2" href="#a"/><use x="6" y="2" href="#a"/><use x="8" y="2" href="#a"/><use x="9" y="2" href="#a"/><use x="21" y="2" href="#a"/><use x="22" y="2" href="#a"/><use x="31" y="2" href="#a"/><use x="34" y="2" href="#a"/><use x="36" y="2" href="#a"/><use x="37" y="2" href="#a"/><use x="38" y="2" href="#a"/><use x="40" y="2" href="#a"/><use y="3" href="#a"/><use x="2" y="3" href="#a"/><use x="3" y="3" href="#a"/><use x="4" y="3" href="#a"/><use x="6" y="3" href="#a"/><use x="8" y="3" href="#a"/><use x="9" y="3" href="#a"/><use x="11" y="3" href="#a"/><use x="12" y="3" href="#a"/><use x="15" y="3" href="#a"/><use x="18" y="3" href="#a"/><use x="19" y="3" href="#a"/><use x="21" y="3" href="#a"/><use x="25" y="3" href="#a"/><use x="27" y="3" href="#a"/><use x="28" y="3" href="#a"/><use x="31" y="3" href="#a"/><use x="34" y="3" href="#a"/><use x="36" y="3" href="#a"/><use x="37" y="3" href="#a"/><use x="38" y="3" href="#a"/><use x="40" y="3" href="#a"/><use y="4" href="#a"/><use x="2" y="4" href="#a"/><use x="3" y="4" href="#a"/><use x="4" y="4" href="#a"/><use x="6" y="4" href="#a"/><use x="9" y="4" href="#a"/><use x="11" y="4" href="#a"/><use x="15" y="4" href="#a"/><use x="16" y="4" href="#a"/><use x="20" y="4" href="#a"/><use x="21" y="4" href="#a"/><use x="25" y="4" href="#a"/><use x="27" y="4" href="#a"/><use x="28" y="4" href="#a"/><use x="30" y="4" href="#a"/><use x="32" y="4" href="#a"/><use x="34" y="4" href="#a"/><use x="36" y="4" href="#a"/><use x="37" y="4" href="#a"/><use x="38" y="4" href="#a"/><use x="40" y="4" href="#a"/><use y="5" href="#a"/><use x="6" y="5" href="#a"/><use x="9" y="5" href="#a"/><use x="13" y="5" href="#a"/><use x="14" y="5" href="#a"/><use x="20" y="5" href="#a"/><use x="26" y="5" href="#a"/><use x="34" y="5" href="#a"/><use x="40" y="5" href="#a"/><use y="6" href="#a"/><use x="1" y="6" href="#a"/><use x="2" y="6" href="#a"/><use x="3" y="6" href="#a"/><use x="4" y="6" href="#a"/><use x="5" y="6" href="#a"/><use x="6" y="6" href="#a"/><use x="8" y="6" href="#a"/><use x="10" y="6" href="#a"/><use x="12" y="6" href="#a"/><use x="14" y="6" href="#a"/><use x="16" y="6" href="#a"/><use x="18" y="6" href="#a"/><use x="20" y="6" href="#a"/><use x="22" y="6" href="#a"/><use x="24" y="6" href="#a"/><use x="26" y="6" href="#a"/><use x="28" y="6" href="#a"/><use x="30" y="6" href="#a"/><use x="32" y="6" href="#a"/><use x="34" y="6" href="#a"/><use x="35" y="6" href="#a"/><use x="36" y="6" href="#a"/><use x="37" y="6" href="#a"/><use x="38" y="6" href="#a"/><use x="39" y="6" href="#a"/><use x="40" y="6" href="#a"/><use x="8" y="7" href="#a"/><use x="10" y="7" href="#a"/><use x="11" y="7" href="#a"/><use x="12" y="7" href="#a"/><use x="13" y="7" href="#a"/><use x="15" y="7" href="#a"/><use x="22" y="7" href="#a"/><use x="24" y="7" href="#a"/><use x="28" y="7" href="#a"/><use x="31" y="7" href="#a"/><use y="8" href="#a"/><use x="6" y="8" href="#a"/><use x="8" y="8" href="#a"/><use x="10" y="8" href="#a"/><use x="12" y="8" href="#a"/><use x="13" y="8" href="#a"/><use x="16" y="8" href="#a"/><use x="17" y="8" href="#a"/><use x="19" y="8" href="#a"/><use x="22" y="8" href="#a"/><use x="23" y="8" href="#a"/><use x="24" y="8" href="#a"/><use x="26" y="8" href="#a"/><use x="27" y="8" href="#a"/><use x="29" y="8" href="#a"/><use x="30" y="8" href="#a"/><use x="32" y="8" href="#a"/><use x="33" y="8" href="#a"/><use x="34" y="8" href="#a"/><use x="37" y="8" href="#a"/><use x="38" y="8" href="#a"/><use x="39" y="8" href="#a"/><use y="9" href="#a"/><use x="1" y="9" href="#a"/><use x="2" y="9" href="#a"/><use x="3" y="9" href="#a"/><use x="4" y="9" href="#a"/><use x="5" y="9" href="#a"/><use x="7" y="9" href="#a"/><use x="8" y="9" href="#a"/><use x="11" y="9" href="#a"/><use x="12" y="9" href="#a"/><use x="13" y="9" href="#a"/><use x="14" y="9" href="#a"/><use x="17" y="9" href="#a"/><use x="18" y="9" href="#a"/><use x="19" y="9" href="#a"/><use x="25" y="9" href="#a"/><use x="26" y="9" href="#a"/><use x="31" y="9" href="#a"/><use x="32" y="9" href="#a"/><use x="33" y="9" href="#a"/><use x="36" y="9" href="#a"/><use x="37" y="9" href="#a"/><use x="39" y="9" href="#a"/><use y="10" href="#a"/><use x="1" y="10" href="#a"/><use x="5" y="10" href="#a"/><use x="6" y="10" href="#a"/><use x="7" y="10" href="#a"/><use x="8" y="10" href="#a"/><use x="12" y="10" href="#a"/><use x="13" y="10" href="#a"/><use x="15" y="10" href="#a"/><use x="17" y="10" href="#a"/><use x="18" y="10" href="#a"/><use x="20" y="10" href="#a"/><use x="21" y="10" href="#a"/><use x="24" y="10" href="#a"/><use x="27" y="10" href="#a"/><use x="29" y="10" href="#a"/><use x="33" y="10" href="#a"/><use x="35" y="10" href="#a"/><use x="36" y="10" href="#a"/><use x="37" y="10" href="#a"/><use y="11" href="#a"/><use x="1" y="11" href="#a"/><use x="3" y="11" href="#a"/><use x="8" y="11" href="#a"/><use x="10" y="11" href="#a"/><use x="11" y="11" href="#a"/><use x="13" y="11" href="#a"/><use x="15" y="11" href="#a"/><use x="18" y="11" href="#a"/><use x="19" y="11" href="#a"/><use x="22" y="11" href="#a"/><use x="23" y="11" href="#a"/><use x="24" y="11" href="#a"/><use x="28" y="11" href="#a"/><use x="32" y="11" href="#a"/><use x="33" y="11" href="#a"/><use x="34" y="11" href="#a"/><use x="36" y="11" href="#a"/><use x="37" y="11" href="#a"/><use x="39" y="11" href="#a"/><use x="40" y="11" href="#a"/><use y="12" href="#a"/><use x="4" y="12" href="#a"/><use x="5" y="12" href="#a"/><use x="6" y="12" href="#a"/><use x="7" y="12" href="#a"/><use x="9" y="12" href="#a"/><use x="15" y="12" href="#a"/><use x="18" y="12" href="#a"/><use x="19" y="12" href="#a"/><use x="20" y="12" href="#a"/><use x="22" y="12" href="#a"/><use x="27" y="12" href="#a"/><use x="31" y="12" href="#a"/><use x="32" y="12" href="#a"/><use x="34" y="12" href="#a"/><use x="37" y="12" href="#a"/><use x="40" y="12" href="#a"/><use y="13" href="#a"/><use x="1" y="13" href="#a"/><use x="5" y="13" href="#a"/><use x="8" y="13" href="#a"/><use x="9" y="13" href="#a"/><use x="10" y="13" href="#a"/><use x="11" y="13" href="#a"/><use x="13" y="13" href="#a"/><use x="14" y="13" href="#a"/><use x="17" y="13" href="#a"/><use x="20" y="13" href="#a"/><use x="21" y="13" href="#a"/><use x="22" y="13" href="#a"/><use x="27" y="13" href="#a"/><use x="31" y="13" href="#a"/><use x="32" y="13" href="#a"/><use x="36" y="13" href="#a"/><use x="37" y="13" href="#a"/><use x="38" y="13" href="#a"/><use x="39" y="13" href="#a"/><use x="2" y="14" href="#a"/><use x="3" y="14" href="#a"/><use x="4" y="14" href="#a"/><use x="6" y="14" href="#a"/><use x="7" y="14" href="#a"/><use x="10" y="14" href="#a"/><use x="11" y="14" href="#a"/><use x="12" y="14" href="#a"/><use x="16" y="14" href="#a"/><use x="18" y="14" href="#a"/><use x="19" y="14" href="#a"/><use x="21" y="14" href="#a"/><use x="25" y="14" href="#a"/><use x="26" y="14" href="#a"/><use x="27" y="14" href="#a"/><use x="28" y="14" href="#a"/><use x="29" y="14" href="#a"/><use x="33" y="14" href="#a"/><use x="35" y="14" href="#a"/><use x="36" y="14" href="#a"/><use x="37" y="14" href="#a"/><use x="38" y="14" href="#a"/><use x="1" y="15" href="#a"/><use x="2" y="15" href="#a"/><use x="3" y="15" href="#a"/><use x="4" y="15" href="#a"/><use x="10" y="15" href="#a"/><use x="18" y="15" href="#a"/><use x="19" y="15" href="#a"/><use x="23" y="15" href="#a"/><use x="24" y="15" href="#a"/><use x="30" y="15" href="#a"/><use x="32" y="15" href="#a"/><use x="35" y="15" href="#a"/><use x="36" y="15" href="#a"/><use x="38" y="15" href="#a"/><use x="40" y="15" href="#a"/><use x="1" y="16" href="#a"/><use x="4" y="16" href="#a"/><use x="5" y="16" href="#a"/><use x="6" y="16" href="#a"/><use x="8" y="16" href="#a"/><use x="15" y="16" href="#a"/><use x="16" y="16" href="#a"/><use x="19" y="16" href="#a"/><use x="20" y="16" href="#a"/><use x="21" y="16" href="#a"/><use x="22" y="16" href="#a"/><use x="24" y="16" href="#a"/><use x="25" y="16" href="#a"/><use x="26" y="16" href="#a"/><use x="27" y="16" href="#a"/><use x="35" y="16" href="#a"/><use x="37" y="16" href="#a"/><use x="38" y="16" href="#a"/><use x="39" y="16" href="#a"/><use x="40" y="16" href="#a"/><use y="17" href="#a"/><use x="4" y="17" href="#a"/><use x="10" y="17" href="#a"/><use x="13" y="17" href="#a"/><use x="17" y="17" href="#a"/><use x="19" y="17" href="#a"/><use x="21" y="17" href="#a"/><use x="22" y="17" href="#a"/><use x="25" y="17" href="#a"/><use x="26" y="17" href="#a"/><use x="27" y="17" href="#a"/><use x="28" y="17" href="#a"/><use x="32" y="17" href="#a"/><use x="34" y="17" href="#a"/><use x="35" y="17" href="#a"/><use x="36" y="17" href="#a"/><use x="40" y="17" href="#a"/><use x="2" y="18" href="#a"/><use x="3" y="18" href="#a"/><use x="5" y="18" href="#a"/><use x="6" y="18" href="#a"/><use x="8" y="18" href="#a"/><use x="10" y="18" href="#a"/><use x="11" y="18" href="#a"/><use x="13" y="18" href="#a"/><use x="15" y="18" href="#a"/><use x="19" y="18" href="#a"/><use x="22" y="18" href="#a"/><use x="23" y="18" href="#a"/><use x="27" y="18" href="#a"/><use x="30" y="18" href="#a"/><use x="31" y="18" href="#a"/><use x="33" y="18" href="#a"/><use x="34" y="18" href="#a"/><use x="36" y="18" href="#a"/><use x="37" y="18" href="#a"/><use x="40" y="18" href="#a"/><use x="2" y="19" href="#a"/><use x="3" y="19" href="#a"/><use x="4" y="19" href="#a"/><use x="5" y="19" href="#a"/><use x="9" y="19" href="#a"/><use x="14" y="19" href="#a"/><use x="17" y="19" href="#a"/><use x="18" y="19" href="#a"/><use x="19" y="19" href="#a"/><use x="20" y="19" href="#a"/><use x="22" y="19" href="#a"/><use x="27" y="19" href="#a"/><use x="31" y="19" href="#a"/><use x="32" y="19" href="#a"/><use x="34" y="19" href="#a"/><use x="35" y="19" href="#a"/><use x="36" y="19" href="#a"/><use x="37" y="19" href="#a"/><use x="40" y="19" href="#a"/><use x="1" y="20" href="#a"/><use x="3" y="20" href="#a"/><use x="5" y="20" href="#a"/><use x="6" y="20" href="#a"/><use x="7" y="20" href="#a"/><use x="9" y="20" href="#a"/><use x="10" y="20" href="#a"/><use x="11" y="20" href="#a"/><use x="16" y="20" href="#a"/><use x="20" y="20" href="#a"/><use x="22" y="20" href="#a"/><use x="23" y="20" href="#a"/><use x="24" y="20" href="#a"/><use x="25" y="20" href="#a"/><use x="27" y="20" href="#a"/><use x="28" y="20" href="#a"/><use x="36" y="20" href="#a"/><use x="39" y="20" href="#a"/><use x="40" y="20" href="#a"/><use y="21" href="#a"/><use x="1" y="21" href="#a"/><use x="3" y="21" href="#a"/><use x="7" y="21" href="#a"/><use x="9" y="21" href="#a"/><use x="10" y="21" href="#a"/><use x="12" y="21" href="#a"/><use x="16" y="21" href="#a"/><use x="17" y="21" href="#a"/><use x="18" y="21" href="#a"/><use x="19" y="21" href="#a"/><use x="20" y="21" href="#a"/><use x="23" y="21" href="#a"/><use x="25" y="21" href="#a"/><use x="29" y="21" href="#a"/><use x="35" y="21" href="#a"/><use x="36" y="21" href="#a"/><use x="38" y="21" href="#a"/><use y="22" href="#a"/><use x="2" y="22" href="#a"/><use x="3" y="22" href="#a"/><use x="4" y="22" href="#a"/><use x="6" y="22" href="#a"/><use x="7" y="22" href="#a"/><use x="8" y="22" href="#a"/><use x="9" y="22" href="#a"/><use x="10" y="22" href="#a"/><use x="12" y="22" href="#a"/><use x="13" y="22" href="#a"/><use x="16" y="22" href="#a"/><use x="17" y="22" href="#a"/><use x="18" y="22" href="#a"/><use x="20" y="22" href="#a"/><use x="21" y="22" href="#a"/><use x="22" y="22" href="#a"/><use x="25" y="22" href="#a"/><use x="27" y="22" href="#a"/><use x="30" y="22" href="#a"/><use x="32" y="22" href="#a"/><use x="33" y="22" href="#a"/><use x="36" y="22" href="#a"/><use x="3" y="23" href="#a"/><use x="4" y="23" href="#a"/><use x="5" y="23" href="#a"/><use x="7" y="23" href="#a"/><use x="8" y="23" href="#a"/><use x="10" y="23" href="#a"/><use x="14" y="23" href="#a"/><use x="15" y="23" href="#a"/><use x="16" y="23" href="#a"/><use x="18" y="23" href="#a"/><use x="19" y="23" href="#a"/><use x="23" y="23" href="#a"/><use x="24" y="23" href="#a"/><use x="26" y="23" href="#a"/><use x="27" y="23" href="#a"/><use x="31" y="23" href="#a"/><use x="33" y="23" href="#a"/><use x="34" y="23" href="#a"/><use x="35" y="23" href="#a"/><use x="37" y="23" href="#a"/><use x="40" y="23" href="#a"/><use x="1" y="24" href="#a"/><use x="2" y="24" href="#a"/><use x="6" y="24" href="#a"/><use x="8" y="24" href="#a"/><use x="15" y="24" href="#a"/><use x="16" y="24" href="#a"/><use x="19" y="24" href="#a"/><use x="20" y="24" href="#a"/><use x="23" y="24" href="#a"/><use x="24" y="24" href="#a"/><use x="25" y="24" href="#a"/><use x="27" y="24" href="#a"/><use x="31" y="24" href="#a"/><use x="34" y="24" href="#a"/><use x="35" y="24" href="#a"/><use x="36" y="24" href="#a"/><use x="38" y="24" href="#a"/><use x="40" y="24" href="#a"/><use y="25" href="#a"/><use x="2" y="25" href="#a"/><use x="4" y="25" href="#a"/><use x="12" y="25" href="#a"/><use x="15" y="25" href="#a"/><use x="16" y="25" href="#a"/><use x="20" y="25" href="#a"/><use x="21" y="25" href="#a"/><use x="22" y="25" href="#a"/><use x="23" y="25" href="#a"/><use x="26" y="25" href="#a"/><use x="27" y="25" href="#a"/><use x="31" y="25" href="#a"/><use x="33" y="25" href="#a"/><use x="34" y="25" href="#a"/><use x="35" y="25" href="#a"/><use x="36" y="25" href="#a"/><use x="37" y="25" href="#a"/><use x="38" y="25" href="#a"/><use x="39" y="25" href="#a"/><use y="26" href="#a"/><use x="1" y="26" href="#a"/><use x="3" y="26" href="#a"/><use x="4" y="26" href="#a"/><use x="6" y="26" href="#a"/><use x="7" y="26" href="#a"/><use x="8" y="26" href="#a"/><use x="9" y="26" href="#a"/><use x="10" y="26" href="#a"/><use x="14" y="26" href="#a"/><use x="15" y="26" href="#a"/><use x="16" y="26" href="#a"/><use x="21" y="26" href="#a"/><use x="24" y="26" href="#a"/><use x="27" y="26" href="#a"/><use x="28" y="26" href="#a"/><use x="30" y="26" href="#a"/><use x="37" y="26" href="#a"/><use x="38" y="26" href="#a"/><use y="27" href="#a"/><use x="2" y="27" href="#a"/><use x="3" y="27" href="#a"/><use x="5" y="27" href="#a"/><use x="8" y="27" href="#a"/><use x="9" y="27" href="#a"/><use x="10" y="27" href="#a"/><use x="11" y="27" href="#a"/><use x="12" y="27" href="#a"/><use x="13" y="27" href="#a"/><use x="14" y="27" href="#a"/><use x="15" y="27" href="#a"/><use x="19" y="27" href="#a"/><use x="22" y="27" href="#a"/><use x="27" y="27" href="#a"/><use x="28" y="27" href="#a"/><use x="30" y="27" href="#a"/><use x="31" y="27" href="#a"/><use x="32" y="27" href="#a"/><use x="35" y="27" href="#a"/><use x="36" y="27" href="#a"/><use x="37" y="27" href="#a"/><use x="38" y="27" href="#a"/><use y="28" href="#a"/><use x="1" y="28" href="#a"/><use x="2" y="28" href="#a"/><use x="3" y="28" href="#a"/><use x="6" y="28" href="#a"/><use x="9" y="28" href="#a"/><use x="15" y="28" href="#a"/><use x="17" y="28" href="#a"/><use x="19" y="28" href="#a"/><use x="22" y="28" href="#a"/><use x="26" y="28" href="#a"/><use x="27" y="28" href="#a"/><use x="31" y="28" href="#a"/><use x="32" y="28" href="#a"/><use x="36" y="28" href="#a"/><use x="38" y="28" href="#a"/><use y="29" href="#a"/><use x="2" y="29" href="#a"/><use x="5" y="29" href="#a"/><use x="8" y="29" href="#a"/><use x="9" y="29" href="#a"/><use x="11" y="29" href="#a"/><use x="13" y="29" href="#a"/><use x="17" y="29" href="#a"/><use x="27" y="29" href="#a"/><use x="28" y="29" href="#a"/><use x="32" y="29" href="#a"/><use x="33" y="29" href="#a"/><use x="34" y="29" href="#a"/><use x="35" y="29" href="#a"/><use x="36" y="29" href="#a"/><use x="37" y="29" href="#a"/><use x="40" y="29" href="#a"/><use y="30" href="#a"/><use x="1" y="30" href="#a"/><use x="2" y="30" href="#a"/><use x="3" y="30" href="#a"/><use x="4" y="30" href="#a"/><use x="6" y="30" href="#a"/><use x="7" y="30" href="#a"/><use x="12" y="30" href="#a"/><use x="14" y="30" href="#a"/><use x="16" y="30" href="#a"/><use x="18" y="30" href="#a"/><use x="19" y="30" href="#a"/><use x="20" y="30" href="#a"/><use x="23" y="30" href="#a"/><use x="27" y="30" href="#a"/><use x="29" y="30" href="#a"/><use x="31" y="30" href="#a"/><use x="32" y="30" href="#a"/><use x="35" y="30" href="#a"/><use x="36" y="30" href="#a"/><use x="40" y="30" href="#a"/><use y="31" href="#a"/><use x="7" y="31" href="#a"/><use x="9" y="31" href="#a"/><use x="10" y="31" href="#a"/><use x="14" y="31" href="#a"/><use x="18" y="31" href="#a"/><use x="19" y="31" href="#a"/><use x="22" y="31" href="#a"/><use x="24" y="31" href="#a"/><use x="26" y="31" href="#a"/><use x="30" y="31" href="#a"/><use x="32" y="31" href="#a"/><use x="33" y="31" href="#a"/><use x="34" y="31" href="#a"/><use x="35" y="31" href="#a"/><use x="37" y="31" href="#a"/><use x="40" y="31" href="#a"/><use y="32" href="#a"/><use x="2" y="32" href="#a"/><use x="4" y="32" href="#a"/><use x="5" y="32" href="#a"/><use x="6" y="32" href="#a"/><use x="8" y="32" href="#a"/><use x="12" y="32" href="#a"/><use x="15" y="32" href="#a"/><use x="16" y="32" href="#a"/><use x="17" y="32" href="#a"/><use x="21" y="32" href="#a"/><use x="22" y="32" href="#a"/><use x="23" y="32" href="#a"/><use x="24" y="32" href="#a"/><use x="25" y="32" href="#a"/><use x="26" y="32" href="#a"/><use x="27" y="32" href="#a"/><use x="28" y="32" href="#a"/><use x="29" y="32" href="#a"/><use x="32" y="32" href="#a"/><use x="33" y="32" href="#a"/><use x="34" y="32" href="#a"/><use x="35" y="32" href="#a"/><use x="36" y="32" href="#a"/><use x="39" y="32" href="#a"/><use x="8" y="33" href="#a"/><use x="9" y="33" href="#a"/><use x="10" y="33" href="#a"/><use x="14" y="33" href="#a"/><use x="16" y="33" href="#a"/><use x="21" y="33" href="#a"/><use x="23" y="33" href="#a"/><use x="27" y="33" href="#a"/><use x="29" y="33" href="#a"/><use x="30" y="33" href="#a"/><use x="31" y="33" href="#a"/><use x="32" y="33" href="#a"/><use x="36" y="33" href="#a"/><use x="37" y="33" href="#a"/><use x="38" y="33" href="#a"/><use y="34" href="#a"/><use x="1" y="34" href="#a"/><use x="2" y="34" href="#a"/><use x="3" y="34" href="#a"/><use x="4" y="34" href="#a"/><use x="5" y="34" href="#a"/><use x="6" y="34" href="#a"/><use x="12" y="34" href="#a"/><use x="13" y="34" href="#a"/><use x="14" y="34" href="#a"/><use x="18" y="34" href="#a"/><use x="20" y="34" href="#a"/><use x="24" y="34" href="#a"/><use x="26" y="34" href="#a"/><use x="27" y="34" href="#a"/><use x="30" y="34" href="#a"/><use x="31" y="34" href="#a"/><use x="32" y="34" href="#a"/><use x="34" y="34" href="#a"/><use x="36" y="34" href="#a"/><use x="37" y="34" href="#a"/><use x="38" y="34" href="#a"/><use y="35" href="#a"/><use x="6" y="35" href="#a"/><use x="9" y="35" href="#a"/><use x="10" y="35" href="#a"/><use x="13" y="35" href="#a"/><use x="15" y="35" href="#a"/><use x="19" y="35" href="#a"/><use x="24" y="35" href="#a"/><use x="26" y="35" href="#a"/><use x="27" y="35" href="#a"/><use x="28" y="35" href="#a"/><use x="31" y="35" href="#a"/><use x="32" y="35" href="#a"/><use x="36" y="35" href="#a"/><use x="37" y="35" href="#a"/><use x="39" y="35" href="#a"/><use y="36" href="#a"/><use x="2" y="36" href="#a"/><use x="3" y="36" href="#a"/><use x="4" y="36" href="#a"/><use x="6" y="36" href="#a"/><use x="12" y="36" href="#a"/><use x="15" y="36" href="#a"/><use x="16" y="36" href="#a"/><use x="17" y="36" href="#a"/><use x="18" y="36" href="#a"/><use x="19" y="36" href="#a"/><use x="22" y="36" href="#a"/><use x="27" y="36" href="#a"/><use x="29" y="36" href="#a"/><use x="31" y="36" href="#a"/><use x="32" y="36" href="#a"/><use x="33" y="36" href="#a"/><use x="34" y="36" href="#a"/><use x="35" y="36" href="#a"/><use x="36" y="36" href="#a"/><use x="40" y="36" href="#a"/><use y="37" href="#a"/><use x="2" y="37" href="#a"/><use x="3" y="37" href="#a"/><use x="4" y="37" href="#a"/><use x="6" y="37" href="#a"/><use x="14" y="37" href="#a"/><use x="16" y="37" href="#a"/><use x="19" y="37" href="#a"/><use x="22" y="37" href="#a"/><use x="26" y="37" href="#a"/><use x="27" y="37" href="#a"/><use x="28" y="37" href="#a"/><use x="32" y="37" href="#a"/><use x="38" y="37" href="#a"/><use x="40" y="37" href="#a"/><use y="38" href="#a"/><use x="2" y="38" href="#a"/><use x="3" y="38" href="#a"/><use x="4" y="38" href="#a"/><use x="6" y="38" href="#a"/><use x="9" y="38" href="#a"/><use x="11" y="38" href="#a"/><use x="13" y="38" href="#a"/><use x="14" y="38" href="#a"/><use x="16" y="38" href="#a"/><use x="21" y="38" href="#a"/><use x="22" y="38" href="#a"/><use x="26" y="38" href="#a"/><use x="27" y="38" href="#a"/><use x="29" y="38" href="#a"/><use x="32" y="38" href="#a"/><use x="34" y="38" href="#a"/><use x="35" y="38" href="#a"/><use x="36" y="38" href="#a"/><use y="39" href="#a"/><use x="6" y="39" href="#a"/><use x="11" y="39" href="#a"/><use x="13" y="39" href="#a"/><use x="15" y="39" href="#a"/><use x="18" y="39" href="#a"/><use x="19" y="39" href="#a"/><use x="23" y="39" href="#a"/><use x="24" y="39" href="#a"/><use x="27" y="39" href="#a"/><use x="28" y="39" href="#a"/><use x="31" y="39" href="#a"/><use x="37" y="39" href="#a"/><use x="38" y="39" href="#a"/><use x="40" y="39" href="#a"/><use y="40" href="#a"/><use x="1" y="40" href="#a"/><use x="2" y="40" href="#a"/><use x="3" y="40" href="#a"/><use x="4" y="40" href="#a"/><use x="5" y="40" href="#a"/><use x="6" y="40" href="#a"/><use x="8" y="40" href="#a"/><use x="13" y="40" href="#a"/><use x="14" y="40" href="#a"/><use x="17" y="40" href="#a"/><use x="18" y="40" href="#a"/><use x="21" y="40" href="#a"/><use x="22" y="40" href="#a"/><use x="23" y="40" href="#a"/><use x="24" y="40" href="#a"/><use x="26" y="40" href="#a"/><use x="27" y="40" href="#a"/><use x="28" y="40" href="#a"/><use x="29" y="40" href="#a"/><use x="30" y="40" href="#a"/><use x="35" y="40" href="#a"/></svg></svg>